<svg height="100%" width="100%" id="svg" viewBox="0 0 1440 700" xmlns="http://www.w3.org/2000/svg" class="transition duration-300 ease-in-out delay-150"><defs><linearGradient id="gradient"><stop offset="5%" stop-color="#0693e344"></stop><stop offset="95%" stop-color="#9900ef44"></stop></linearGradient></defs><path d="M 0,700 C 0,700 0,140 0,140 C 46.19264928295209,136.15397231445485 92.38529856590418,132.30794462890967 122,143 C 151.61470143409582,153.69205537109033 164.65145501933537,178.92219379881615 202,181 C 239.34854498066463,183.07780620118385 301.0088813567544,162.00328017582572 345,161 C 388.9911186432456,159.99671982417428 415.313019553647,179.06468549788102 443,184 C 470.686980446353,188.93531450211898 499.7390404286575,179.73797783265027 535,184 C 570.2609595713425,188.26202216734973 611.7308187317226,205.98340317151795 647,188 C 682.2691812682774,170.01659682848205 711.3376846444521,116.3284094812779 756,123 C 800.6623153555479,129.6715905187221 860.9184426904691,196.7029589033704 905,189 C 949.0815573095309,181.2970410966296 976.9885445936713,98.85975490524048 1009,96 C 1041.0114554063287,93.14024509475952 1077.127378934845,169.8580214756676 1114,180 C 1150.872621065155,190.1419785243324 1188.5019396669488,133.7081591920891 1218,128 C 1247.4980603330512,122.2918408079109 1268.86486239736,167.30934175597602 1310,168 C 1351.13513760264,168.69065824402398 1412.0386107436116,125.05447378400684 1437,113 C 1461.9613892563884,100.94552621599316 1450.9806946281942,120.47276310799657 1440,140 C 1440,140 1440,700 1440,700 Z" stroke="none" stroke-width="0" fill="url(#gradient)" class="transition-all duration-300 ease-in-out delay-150" transform="rotate(-180 720 350)"></path><defs><linearGradient id="gradient"><stop offset="5%" stop-color="#0693e366"></stop><stop offset="95%" stop-color="#9900ef66"></stop></linearGradient></defs><path d="M 0,700 C 0,700 0,280 0,280 C 40.782817939749265,287.9127739220026 81.56563587949853,295.8255478440052 122,295 C 162.43436412050147,294.1744521559948 202.52027442175518,284.6105825459817 238,293 C 273.4797255782448,301.3894174540183 304.3532664334806,327.73212197206806 343,322 C 381.6467335665194,316.26787802793194 428.06665984432254,278.46092956574597 462,283 C 495.93334015567746,287.53907043425403 517.3800941892296,334.42415976494794 544,327 C 570.6199058107704,319.57584023505206 602.4129633987593,257.8424313744621 644,254 C 685.5870366012407,250.1575686255379 736.9680522157335,304.20611473720373 772,299 C 807.0319477842665,293.79388526279627 825.7148277383071,229.33310967672313 865,229 C 904.2851722616929,228.66689032327687 964.1726368310385,292.4614465559039 1004,307 C 1043.8273631689615,321.5385534440961 1063.5946249375393,286.82110409966106 1101,257 C 1138.4053750624607,227.17889590033892 1193.448863418804,202.25413704545167 1231,227 C 1268.551136581196,251.74586295454833 1288.609921387245,326.1623477185323 1325,329 C 1361.390078612755,331.8376522814677 1414.1114510322159,263.09647208041935 1436,243 C 1457.8885489677841,222.90352791958065 1448.944274483892,251.45176395979033 1440,280 C 1440,280 1440,700 1440,700 Z" stroke="none" stroke-width="0" fill="url(#gradient)" class="transition-all duration-300 ease-in-out delay-150" transform="rotate(-180 720 350)"></path><defs><linearGradient id="gradient"><stop offset="5%" stop-color="#0693e388"></stop><stop offset="95%" stop-color="#9900ef88"></stop></linearGradient></defs><path d="M 0,700 C 0,700 0,420 0,420 C 35.80684142587357,446.8908615925777 71.61368285174714,473.7817231851554 105,467 C 138.38631714825286,460.2182768148446 169.352110018885,419.76396885195624 208,422 C 246.647889981115,424.23603114804376 292.9778770727129,469.1624014070199 335,461 C 377.0221229272871,452.8375985929801 414.73638169026344,391.58642551996417 451,378 C 487.26361830973656,364.41357448003583 522.0765961662332,398.4918965131235 555,424 C 587.9234038337668,449.5081034868765 618.9572336448038,466.44598842754186 658,465 C 697.0427663551962,463.55401157245814 744.0944692545518,443.72414977670906 781,447 C 817.9055307454482,450.27585022329094 844.6648893369894,476.6574124656219 877,469 C 909.3351106630106,461.3425875343781 947.2459733974906,419.646200360803 991,405 C 1034.7540266025094,390.353799639197 1084.351217073048,402.75778609116605 1119,413 C 1153.648782926952,423.24221390883395 1173.3491583103173,431.3226552745328 1204,425 C 1234.6508416896827,418.6773447254672 1276.252149685684,397.9515928107027 1323,394 C 1369.747850314316,390.0484071892973 1421.6422429469476,402.8709734826564 1442,410 C 1462.3577570530524,417.1290265173436 1451.1788785265262,418.5645132586718 1440,420 C 1440,420 1440,700 1440,700 Z" stroke="none" stroke-width="0" fill="url(#gradient)" class="transition-all duration-300 ease-in-out delay-150" transform="rotate(-180 720 350)"></path><defs><linearGradient id="gradient"><stop offset="5%" stop-color="#0693e3ff"></stop><stop offset="95%" stop-color="#9900efff"></stop></linearGradient></defs><path d="M 0,700 C 0,700 0,560 0,560 C 40.192507362749254,544.8414993205135 80.38501472549851,529.6829986410271 112,519 C 143.6149852745015,508.31700135897285 166.65244846075518,502.1095047564048 208,522 C 249.34755153924482,541.8904952435952 309.0051914314809,587.8789823333534 351,592 C 392.9948085685191,596.1210176666466 417.32678581332135,558.3745659101814 450,550 C 482.67321418667865,541.6254340898186 523.6876653152339,562.6227540259212 563,552 C 602.3123346847661,541.3772459740788 639.9225529257432,499.1344179861338 669,512 C 698.0774470742568,524.8655820138662 718.6221229817933,592.8395740295431 757,592 C 795.3778770182067,591.1604259704569 851.5889551470839,521.5072858956936 895,515 C 938.4110448529161,508.4927141043064 969.0220564298709,565.1312823876824 1004,573 C 1038.9779435701291,580.8687176123176 1078.3228191334324,539.9675845535768 1109,546 C 1139.6771808665676,552.0324154464232 1161.6866670363997,604.9983793980103 1199,595 C 1236.3133329636003,585.0016206019897 1288.9305127209693,512.0388978543817 1338,509 C 1387.0694872790307,505.9611021456182 1432.5912820797232,572.8460291844624 1449,593 C 1465.4087179202768,613.1539708155376 1452.7043589601385,586.5769854077688 1440,560 C 1440,560 1440,700 1440,700 Z" stroke="none" stroke-width="0" fill="url(#gradient)" class="transition-all duration-300 ease-in-out delay-150" transform="rotate(-180 720 350)"></path></svg>